<svg width="557" height="557" viewBox="0 0 557 157" preserveAspectRatio="xMinYMid" fill="none" xmlns="http://www.w3.org/2000/svg"><mask id="mask0_3_843" style="mask-type:alpha" maskUnits="userSpaceOnUse" x="1" y="1" width="555" height="556"><g opacity=".8"><path d="m405.566 156.656-37.713 27.85 72.526 32.491-53.38 28.431-5.221-40.035 68.464 96.315-29.59-8.703-31.912-35.973 49.318-16.826 16.246 48.737-9.284 59.762-6.962 8.703-42.936-53.379-9.863 8.123m0 0-10.444 46.997 6.963-10.444 18.566 8.703-15.085-45.256ZM70.785 244.848l-26.69 88.772-13.924 59.762 78.908 11.024L8.703 315.634l6.963-87.612 23.788 45.256M159.557 33.071l-9.863 41.775 81.229-69.625 41.195-1.74-112.561 29.59Z" stroke="#0092F6" stroke-width=".5"/><path d="M158.977 33.651 85.871 81.228l14.505 58.602-34.232 19.727 9.283 49.898-62.082 8.123 20.307-60.922 37.714 87.611-25.53-36.553-2.32-37.133 42.355 2.321-70.786 55.119 58.021 49.898-33.072-4.061 7.543-66.144 12.765 88.192-49.898-8.123m0 0-5.802 16.826 73.106 35.393-67.304-52.219Z" stroke="#0092F6" stroke-width=".5"/><path d="m139.25 42.355-38.294 97.475-67.884 17.406 88.772-45.837 36.553-77.748h38.874" stroke="#0092F6" stroke-width=".5"/><path d="m159.557 33.071-20.307 8.703 9.904 31.912m0 0 .54 1.74-27.85 35.973-48.738-19.147 76.048-18.566Z" stroke="#0092F6" stroke-width=".5"/><path d="M74.847 116.621 85.29 81.809l28.43 6.382-13.345 51.059-12.764 33.652-12.765-56.281ZM76.588 210.035l-6.383 33.652-30.75 30.751L4.06 256.451l56.28 41.195 16.247 43.516 17.406 41.195-49.898-48.738-34.813-17.406 1.74 34.232 62.663-2.901-49.898 33.072 5.222 11.604 37.134-1.74m0 0 29.01-6.383 14.505 22.048-60.341 4.062 23.208-63.823-6.382 44.096Z" stroke="#0092F6" stroke-width=".5"/><path d="m109.659 404.985 44.677 44.676-60.922-16.826-32.492 12.185 32.492-62.083 8.703 101.537-12.765-23.789 46.417 4.642v-29.011l46.417 32.492 28.43 1.741-63.823 32.492 5.222-52.219 6.382 65.563 36.553-19.727-23.788 19.727-77.168-82.389 42.935 31.331-33.652 20.307 91.673 9.284h49.898l-16.246 35.973-12.184-5.222v-53.38l49.898 1.741-48.738 51.639-35.392-58.601 73.106 53.959m0 0 52.219-10.444-19.727-51.638-32.492 62.082Z" stroke="#0092F6" stroke-width=".5"/><path d="m301.129 508.262-56.281-12.764 78.328-27.85-2.901 32.492-12.764 9.283 17.406-70.205-37.133 19.146 72.526 20.308 27.85-24.369-48.738-35.973 82.97-16.246-47.577-42.355 71.366-13.345-63.243-33.652 71.946-23.208-66.724-33.072 54.54-38.874-37.714-61.502-30.171 34.232-29.01-69.625 2.901 32.491-34.233-34.812 28.431 24.949 13.344-15.666 20.888 30.751 38.294 9.864m0 0-40.615 23.788 27.27 6.383 11.024 32.492 26.109 8.122-23.788-70.785Z" stroke="#0092F6" stroke-width=".5"/><path d="m422.972 403.245-22.048-45.837-23.788 57.441-9.864-26.69 24.369 51.059-52.799-22.048 9.864-6.963 96.895-63.242-22.629 56.28Z" stroke="#0092F6" stroke-width=".5"/><path d="m373.655 360.309-33.653 57.441-52.799 40.034-75.427 12.185-59.181-21.468M422.972 403.245l-33.652 50.478-64.983-13.925m0 0 35.393 41.195-39.455 19.147 30.171-23.209 26.69-62.082-52.799 24.949ZM439.798 216.417l-55.7 96.895 4.642-56.86 16.246-100.377-61.502-35.973-29.591-2.901" stroke="#0092F6" stroke-width=".5"/><path d="m29.01 393.961 33.072 52.799 40.035 37.714 55.7 31.911 73.106 13.345 45.256-1.74 30.752-17.987-96.895-40.034M84.71 81.809l-51.638 74.847 41.775-40.615 39.454-27.27 51.059-44.676-7.543-11.604" stroke="#0092F6" stroke-width=".5"/><path d="m5.222 305.77 24.369 86.451 124.164 58.021-91.092-5.222 147.373 24.949" stroke="#0092F6" stroke-width=".5"/><path d="m454.884 291.264-80.069 70.206 62.663-121.844 8.123 107.919-67.885 68.464 11.024 38.874-101.537 3.482-11.604 70.205-66.144-59.181 20.888 62.082-77.748-82.39 17.986 67.305-35.392-78.909-68.465-46.997-7.543 54.54-15.085-113.141-4.062-58.021" stroke="#0092F6" stroke-width=".5"/><circle cx="230.923" cy="5.801" r="2.321" fill="#0092F6"/><circle cx="197.271" cy="33.651" r="2.321" fill="#0092F6"/><circle cx="149.694" cy="74.266" r="2.321" fill="#0092F6"/><circle cx="73.106" cy="91.672" r="2.321" fill="#0092F6"/><circle cx="139.25" cy="41.774" r="2.321" fill="#0092F6"/><circle cx="121.844" cy="111.399" r="2.321" fill="#0092F6"/><circle cx="75.427" cy="116.041" r="2.321" fill="#0092F6"/><circle cx="9.283" cy="315.633" r="2.321" fill="#0092F6"/><circle cx="24.369" cy="380.616" r="2.321" fill="#0092F6"/><circle cx="73.106" cy="346.964" r="2.321" fill="#0092F6"/><circle cx="48.737" cy="409.626" r="2.321" fill="#0092F6"/><circle cx="135.769" cy="437.477" r="2.321" fill="#0092F6"/><circle cx="89.352" cy="460.685" r="2.321" fill="#0092F6"/><circle cx="146.213" cy="502.46" r="2.321" fill="#0092F6"/><circle cx="170.582" cy="516.386" r="2.321" fill="#0092F6"/><circle cx="216.998" cy="525.669" r="2.321" fill="#0092F6"/><circle cx="255.292" cy="521.027" r="2.321" fill="#0092F6"/><circle cx="276.18" cy="527.989" r="2.321" fill="#0092F6"/><circle cx="300.548" cy="508.262" r="2.321" fill="#0092F6"/><circle cx="320.275" cy="500.14" r="2.321" fill="#0092F6"/><circle cx="351.607" cy="476.931" r="2.321" fill="#0092F6"/><circle cx="391.061" cy="439.798" r="2.321" fill="#0092F6"/><circle cx="415.43" cy="404.985" r="2.321" fill="#0092F6"/><circle cx="438.638" cy="357.408" r="2.321" fill="#0092F6"/><circle cx="450.242" cy="301.708" r="2.321" fill="#0092F6"/><circle cx="438.638" cy="239.046" r="2.321" fill="#0092F6"/><circle cx="415.43" cy="168.26" r="2.321" fill="#0092F6"/><circle cx="356.248" cy="127.645" r="2.321" fill="#0092F6"/><circle cx="314.473" cy="118.362" r="2.321" fill="#0092F6"/><circle cx="342.323" cy="143.891" r="2.321" fill="#0092F6"/><circle cx="367.853" cy="184.506" r="2.321" fill="#0092F6"/><circle cx="381.778" cy="205.393" r="2.321" fill="#0092F6"/><circle cx="386.419" cy="246.008" r="2.321" fill="#0092F6"/><circle cx="395.703" cy="304.029" r="2.321" fill="#0092F6"/><circle cx="381.778" cy="349.285" r="2.321" fill="#0092F6"/><circle cx="367.853" cy="387.579" r="2.321" fill="#0092F6"/><circle cx="349.286" cy="409.626" r="2.321" fill="#0092F6"/><circle cx="324.917" cy="439.798" r="2.321" fill="#0092F6"/><circle cx="295.907" cy="453.723" r="2.321" fill="#0092F6"/><circle cx="265.736" cy="474.61" r="2.321" fill="#0092F6"/><circle cx="216.998" cy="472.29" r="2.321" fill="#0092F6"/><circle cx="182.186" cy="467.647" r="2.321" fill="#0092F6"/><circle cx="244.848" cy="495.498" r="2.321" fill="#0092F6"/><circle cx="194.95" cy="495.498" r="2.321" fill="#0092F6"/><circle cx="135.769" cy="465.327" r="2.321" fill="#0092F6"/><circle cx="93.994" cy="432.835" r="2.321" fill="#0092F6"/><circle cx="66.144" cy="389.9" r="2.321" fill="#0092F6"/><circle cx="44.096" cy="333.039" r="2.321" fill="#0092F6"/><circle cx="39.454" cy="273.858" r="2.321" fill="#0092F6"/><circle cx="46.417" cy="207.714" r="2.321" fill="#0092F6"/><circle cx="66.144" cy="158.976" r="2.321" fill="#0092F6"/><circle cx="113.721" cy="88.191" r="2.321" fill="#0092F6"/><circle cx="165.94" cy="44.095" r="2.321" fill="#0092F6"/><circle cx="322.596" cy="467.647" r="2.321" fill="#0092F6"/><circle cx="377.136" cy="414.268" r="2.321" fill="#0092F6"/><circle cx="400.344" cy="357.408" r="2.321" fill="#0092F6"/><circle cx="420.071" cy="292.425" r="2.321" fill="#0092F6"/><circle cx="413.109" cy="230.922" r="2.321" fill="#0092F6"/><circle cx="402.665" cy="198.43" r="2.321" fill="#0092F6"/><circle cx="377.136" cy="157.816" r="2.321" fill="#0092F6"/><circle cx="75.427" cy="210.035" r="2.321" fill="#0092F6"/><circle cx="15.085" cy="228.602" r="2.321" fill="#0092F6"/><circle cx="87.031" cy="172.902" r="2.321" fill="#0092F6"/><circle cx="60.342" cy="297.066" r="2.321" fill="#0092F6"/><circle cx="10.444" cy="287.783" r="2.321" fill="#0092F6"/><circle cx="3.481" cy="256.451" r="2.321" fill="#0092F6"/><circle cx="158.977" cy="32.491" r="4.642" fill="#0092F6"/><circle cx="100.956" cy="139.249" r="4.642" fill="#0092F6"/><circle cx="12.765" cy="216.997" r="4.642" fill="#0092F6"/><circle cx="70.785" cy="243.687" r="4.642" fill="#0092F6"/><circle cx="5.802" cy="304.029" r="4.642" fill="#0092F6"/><circle cx="77.748" cy="340.002" r="4.642" fill="#0092F6"/><circle cx="93.994" cy="382.937" r="4.642" fill="#0092F6"/><circle cx="153.175" cy="449.081" r="4.642" fill="#0092F6"/><circle cx="61.502" cy="444.44" r="4.642" fill="#0092F6"/><circle cx="29.011" cy="392.221" r="4.642" fill="#0092F6"/><circle cx="210.036" cy="469.968" r="4.642" fill="#0092F6"/><circle cx="287.784" cy="458.365" r="4.642" fill="#0092F6"/><circle cx="340.003" cy="416.589" r="4.642" fill="#0092F6"/><circle cx="374.815" cy="359.729" r="4.642" fill="#0092F6"/><circle cx="384.098" cy="313.312" r="4.642" fill="#0092F6"/><circle cx="388.74" cy="256.451" r="4.642" fill="#0092F6"/><circle cx="374.815" cy="191.468" r="4.642" fill="#0092F6"/><circle cx="349.286" cy="153.174" r="4.642" fill="#0092F6"/><circle cx="344.644" cy="120.683" r="4.642" fill="#0092F6"/><circle cx="404.986" cy="156.655" r="4.642" fill="#0092F6"/><circle cx="440.959" cy="216.997" r="4.642" fill="#0092F6"/><circle cx="454.884" cy="290.104" r="4.642" fill="#0092F6"/><circle cx="445.601" cy="346.964" r="4.642" fill="#0092F6"/><circle cx="422.392" cy="402.664" r="4.642" fill="#0092F6"/><circle cx="388.74" cy="453.722" r="4.642" fill="#0092F6"/><circle cx="358.569" cy="479.252" r="4.642" fill="#0092F6"/><circle cx="307.511" cy="509.423" r="4.642" fill="#0092F6"/><circle cx="229.763" cy="530.31" r="4.642" fill="#0092F6"/><circle cx="157.817" cy="515.225" r="4.642" fill="#0092F6"/><circle cx="102.117" cy="483.894" r="4.642" fill="#0092F6"/><circle cx="85.871" cy="81.228" r="4.642" fill="#0092F6"/><circle cx="33.652" cy="156.655" r="4.642" fill="#0092F6"/><circle cx="44.096" cy="170.581" r="2.321" fill="#0092F6"/><circle cx="73.106" cy="278.5" r="2.321" fill="#0092F6"/><circle cx="11.604" cy="349.285" r="2.321" fill="#0092F6"/><circle cx="109.079" cy="404.985" r="2.321" fill="#0092F6"/><circle cx="271.538" cy="3.481" r="2.321" fill="#0092F6"/><path d="m151.435 401.504 37.713-27.85-72.526-32.492 53.379-28.43 5.222 40.034-68.464-96.315 29.59 8.704 31.912 35.972-49.318 16.827-16.246-48.738 9.283-59.762 6.963-8.703 42.935 53.38 9.864-8.123m0 0 10.444-46.997-6.963 10.443-18.566-8.703 15.085 45.257ZM486.215 313.312l26.69-88.772 13.925-59.762-78.908-11.024 100.376 88.772-6.963 87.612-23.788-45.257M397.443 525.089l9.864-41.776-81.229 69.626-41.195 1.74 112.56-29.59Z" stroke="#0092F6" stroke-width=".5"/><path d="m398.023 524.508 73.107-47.577-14.505-58.601 34.232-19.727-9.283-49.898 62.082-8.123-20.307 60.922-37.714-87.612 25.529 36.553 2.321 37.134-42.355-2.321 70.785-55.12-58.021-49.898 33.072 4.061-7.542 66.144-12.765-88.191 49.898 8.122m0 0 5.802-16.826-73.106-35.392 67.304 52.218Z" stroke="#0092F6" stroke-width=".5"/><path d="m417.751 515.805 38.293-97.475 67.885-17.407-88.772 45.837-36.553 77.748H359.73" stroke="#0092F6" stroke-width=".5"/><path d="m397.443 525.088 20.308-8.703-9.904-31.911m0 0-.54-1.741 27.85-35.973 48.737 19.147-76.047 18.567Z" stroke="#0092F6" stroke-width=".5"/><path d="m482.154 441.539-10.444 34.812-28.43-6.382 13.345-51.059 12.764-33.652 12.765 56.281ZM480.413 348.124l6.382-33.652 30.752-30.751 35.392 17.987-56.28-41.195-16.246-43.516-17.406-41.195 49.898 48.738 34.812 17.406-1.74-34.232-62.663 2.901 49.898-33.072-5.222-11.604-37.133 1.74m0 0-29.011 6.383-14.505-22.048 60.342-4.062-23.208 63.823 6.382-44.096Z" stroke="#0092F6" stroke-width=".5"/><path d="m447.341 153.174-44.676-44.676 60.922 16.826 32.492-12.184-32.492 62.082-8.703-101.536 12.765 23.788-46.417-4.642v29.011l-46.417-32.492-28.43-1.74 63.823-32.492-5.222 52.219-6.382-65.564-36.553 19.727 23.788-19.727 77.168 82.39-42.935-31.332 33.652-20.307-91.673-9.283h-49.898l16.245-35.973 12.185 5.222V85.87l-49.898-1.74 48.737-51.64 35.393 58.602-73.106-53.96m0 0L249.49 47.576l19.727 51.639 32.492-62.083Z" stroke="#0092F6" stroke-width=".5"/><path d="m255.872 49.897 56.281 12.765-78.329 27.85 2.901-32.492 12.765-9.283-17.406 70.205 37.133-19.147-72.526-20.307-27.85 24.369 48.738 35.972-82.97 16.246 47.577 42.356-71.366 13.344 63.243 33.653-71.946 23.208 66.724 33.072-54.54 38.874 37.714 61.502 30.171-34.232 29.01 69.625-2.901-32.492 34.232 34.813-28.43-24.949-13.345 15.665-20.887-30.751-38.294-9.863m0 0 40.615-23.789-27.27-6.382-11.024-32.492-26.109-8.123 23.788 70.786Z" stroke="#0092F6" stroke-width=".5"/><path d="m134.028 154.915 22.048 45.836 23.789-57.44L189.728 170l-24.368-51.058 52.799 22.048-9.864 6.962-96.895 63.243 22.628-56.28Z" stroke="#0092F6" stroke-width=".5"/><path d="m183.346 197.85 33.652-57.441 52.799-40.034 75.427-12.184 59.182 21.467M134.028 154.915l33.652-50.478 64.984 13.925m0 0-35.393-41.195 39.454-19.147-30.171 23.208-26.689 62.083 52.799-24.949ZM117.202 341.742l55.7-96.895-4.641 56.861-16.246 100.376 61.502 35.973 29.591 2.901" stroke="#0092F6" stroke-width=".5"/><path d="m527.99 164.198-33.072-52.799-40.034-37.713-55.7-31.912-73.106-13.345-45.257 1.74-30.751 17.987 96.895 40.035M472.29 476.351l51.639-74.847-41.775 40.614-39.454 27.27-51.059 44.676 7.543 11.604" stroke="#0092F6" stroke-width=".5"/><path d="m551.779 252.39-24.369-86.452-124.165-58.02 91.093 5.221-147.373-24.948" stroke="#0092F6" stroke-width=".5"/><path d="m102.117 266.895 80.069-70.205-62.663 121.844-8.123-107.919 67.885-68.465-11.024-38.874 101.536-3.481 11.605-70.206 66.143 59.182-20.887-62.082 77.748 82.389-17.987-67.304 35.393 78.908 68.465 46.997 7.543-54.539 15.085 113.14 4.061 58.021" stroke="#0092F6" stroke-width=".5"/><circle cx="326.078" cy="552.358" r="2.321" transform="rotate(-180 326.078 552.358)" fill="#0092F6"/><circle cx="359.73" cy="524.508" r="2.321" transform="rotate(-180 359.73 524.508)" fill="#0092F6"/><circle cx="407.307" cy="483.894" r="2.321" transform="rotate(-180 407.307 483.894)" fill="#0092F6"/><circle cx="483.895" cy="466.487" r="2.321" transform="rotate(-180 483.895 466.487)" fill="#0092F6"/><circle cx="417.751" cy="516.385" r="2.321" transform="rotate(-180 417.751 516.385)" fill="#0092F6"/><circle cx="435.157" cy="446.76" r="2.321" transform="rotate(-180 435.157 446.76)" fill="#0092F6"/><circle cx="481.574" cy="442.118" r="2.321" transform="rotate(-180 481.574 442.118)" fill="#0092F6"/><circle cx="547.717" cy="242.527" r="2.321" transform="rotate(-180 547.717 242.527)" fill="#0092F6"/><circle cx="532.632" cy="177.543" r="2.321" transform="rotate(-180 532.632 177.543)" fill="#0092F6"/><circle cx="483.895" cy="211.195" r="2.321" transform="rotate(-180 483.895 211.195)" fill="#0092F6"/><circle cx="508.263" cy="148.533" r="2.321" transform="rotate(-180 508.263 148.533)" fill="#0092F6"/><circle cx="421.232" cy="120.682" r="2.321" transform="rotate(-180 421.232 120.682)" fill="#0092F6"/><circle cx="467.649" cy="97.474" r="2.321" transform="rotate(-180 467.649 97.474)" fill="#0092F6"/><circle cx="410.788" cy="55.699" r="2.321" transform="rotate(-180 410.788 55.7)" fill="#0092F6"/><circle cx="386.419" cy="41.774" r="2.321" transform="rotate(-180 386.419 41.774)" fill="#0092F6"/><circle cx="340.003" cy="32.491" r="2.321" transform="rotate(-180 340.003 32.491)" fill="#0092F6"/><circle cx="301.709" cy="37.132" r="2.321" transform="rotate(-180 301.709 37.132)" fill="#0092F6"/><circle cx="280.821" cy="30.17" r="2.321" transform="rotate(-180 280.821 30.17)" fill="#0092F6"/><circle cx="256.453" cy="49.897" r="2.321" transform="rotate(-180 256.453 49.897)" fill="#0092F6"/><circle cx="236.725" cy="58.02" r="2.321" transform="rotate(-180 236.725 58.02)" fill="#0092F6"/><circle cx="205.394" cy="81.228" r="2.321" transform="rotate(-180 205.394 81.228)" fill="#0092F6"/><circle cx="165.94" cy="118.362" r="2.321" transform="rotate(-180 165.94 118.362)" fill="#0092F6"/><circle cx="141.571" cy="153.174" r="2.321" transform="rotate(-180 141.571 153.174)" fill="#0092F6"/><circle cx="118.363" cy="200.751" r="2.321" transform="rotate(-180 118.363 200.751)" fill="#0092F6"/><circle cx="106.759" cy="256.452" r="2.321" transform="rotate(-180 106.759 256.452)" fill="#0092F6"/><circle cx="118.363" cy="319.114" r="2.321" transform="rotate(-180 118.363 319.114)" fill="#0092F6"/><circle cx="141.571" cy="389.899" r="2.321" transform="rotate(-180 141.571 389.899)" fill="#0092F6"/><circle cx="200.752" cy="430.514" r="2.321" transform="rotate(-180 200.752 430.514)" fill="#0092F6"/><circle cx="242.527" cy="439.798" r="2.321" transform="rotate(-180 242.527 439.798)" fill="#0092F6"/><circle cx="214.677" cy="414.268" r="2.321" transform="rotate(-180 214.677 414.268)" fill="#0092F6"/><circle cx="189.148" cy="373.654" r="2.321" transform="rotate(-180 189.148 373.654)" fill="#0092F6"/><circle cx="175.223" cy="352.766" r="2.321" transform="rotate(-180 175.223 352.766)" fill="#0092F6"/><circle cx="170.582" cy="312.152" r="2.321" transform="rotate(-180 170.582 312.152)" fill="#0092F6"/><circle cx="161.298" cy="254.131" r="2.321" transform="rotate(-180 161.298 254.131)" fill="#0092F6"/><circle cx="175.223" cy="208.874" r="2.321" transform="rotate(-180 175.223 208.874)" fill="#0092F6"/><circle cx="189.148" cy="170.581" r="2.321" transform="rotate(-180 189.148 170.581)" fill="#0092F6"/><circle cx="207.715" cy="148.533" r="2.321" transform="rotate(-180 207.715 148.533)" fill="#0092F6"/><circle cx="232.084" cy="118.362" r="2.321" transform="rotate(-180 232.084 118.362)" fill="#0092F6"/><circle cx="261.094" cy="104.436" r="2.321" transform="rotate(-180 261.094 104.436)" fill="#0092F6"/><circle cx="291.265" cy="83.549" r="2.321" transform="rotate(-180 291.265 83.55)" fill="#0092F6"/><circle cx="340.003" cy="85.87" r="2.321" transform="rotate(-180 340.003 85.87)" fill="#0092F6"/><circle cx="374.815" cy="90.512" r="2.321" transform="rotate(-180 374.815 90.512)" fill="#0092F6"/><circle cx="312.153" cy="62.662" r="2.321" transform="rotate(-180 312.153 62.662)" fill="#0092F6"/><circle cx="362.051" cy="62.662" r="2.321" transform="rotate(-180 362.051 62.662)" fill="#0092F6"/><circle cx="421.232" cy="92.832" r="2.321" transform="rotate(-180 421.232 92.832)" fill="#0092F6"/><circle cx="463.007" cy="125.324" r="2.321" transform="rotate(-180 463.007 125.324)" fill="#0092F6"/><circle cx="490.857" cy="168.26" r="2.321" transform="rotate(-180 490.857 168.26)" fill="#0092F6"/><circle cx="512.905" cy="225.12" r="2.321" transform="rotate(-180 512.905 225.12)" fill="#0092F6"/><circle cx="517.547" cy="284.301" r="2.321" transform="rotate(-180 517.547 284.301)" fill="#0092F6"/><circle cx="510.584" cy="350.445" r="2.321" transform="rotate(-180 510.584 350.445)" fill="#0092F6"/><circle cx="490.857" cy="399.183" r="2.321" transform="rotate(-180 490.857 399.183)" fill="#0092F6"/><circle cx="443.28" cy="469.968" r="2.321" transform="rotate(-180 443.28 469.968)" fill="#0092F6"/><circle cx="391.061" cy="514.064" r="2.321" transform="rotate(-180 391.061 514.064)" fill="#0092F6"/><circle cx="234.405" cy="90.512" r="2.321" transform="rotate(-180 234.405 90.512)" fill="#0092F6"/><circle cx="179.865" cy="143.891" r="2.321" transform="rotate(-180 179.865 143.891)" fill="#0092F6"/><circle cx="156.657" cy="200.751" r="2.321" transform="rotate(-180 156.657 200.751)" fill="#0092F6"/><circle cx="136.93" cy="265.735" r="2.321" transform="rotate(-180 136.93 265.735)" fill="#0092F6"/><circle cx="143.892" cy="327.237" r="2.321" transform="rotate(-180 143.892 327.237)" fill="#0092F6"/><circle cx="154.336" cy="359.729" r="2.321" transform="rotate(-180 154.336 359.729)" fill="#0092F6"/><circle cx="179.865" cy="400.343" r="2.321" transform="rotate(-180 179.865 400.343)" fill="#0092F6"/><circle cx="481.574" cy="348.124" r="2.321" transform="rotate(-180 481.574 348.124)" fill="#0092F6"/><circle cx="541.915" cy="329.558" r="2.321" transform="rotate(-180 541.915 329.558)" fill="#0092F6"/><circle cx="469.97" cy="385.258" r="2.321" transform="rotate(-180 469.97 385.258)" fill="#0092F6"/><circle cx="496.659" cy="261.093" r="2.321" transform="rotate(-180 496.659 261.093)" fill="#0092F6"/><circle cx="546.557" cy="270.376" r="2.321" transform="rotate(-180 546.557 270.376)" fill="#0092F6"/><circle cx="553.52" cy="301.708" r="2.321" transform="rotate(-180 553.52 301.708)" fill="#0092F6"/><circle cx="398.023" cy="525.668" r="4.642" transform="rotate(-180 398.023 525.668)" fill="#0092F6"/><circle cx="456.044" cy="418.91" r="4.642" transform="rotate(-180 456.044 418.91)" fill="#0092F6"/><circle cx="544.236" cy="341.162" r="4.642" transform="rotate(-180 544.236 341.162)" fill="#0092F6"/><circle cx="486.215" cy="314.473" r="4.642" transform="rotate(-180 486.215 314.473)" fill="#0092F6"/><circle cx="551.199" cy="254.131" r="4.642" transform="rotate(-180 551.199 254.131)" fill="#0092F6"/><circle cx="479.253" cy="218.158" r="4.642" transform="rotate(-180 479.253 218.158)" fill="#0092F6"/><circle cx="463.007" cy="175.222" r="4.642" transform="rotate(-180 463.007 175.222)" fill="#0092F6"/><circle cx="403.826" cy="109.079" r="4.642" transform="rotate(-180 403.826 109.079)" fill="#0092F6"/><circle cx="495.499" cy="113.72" r="4.642" transform="rotate(-180 495.499 113.72)" fill="#0092F6"/><circle cx="527.99" cy="165.939" r="4.642" transform="rotate(-180 527.99 165.939)" fill="#0092F6"/><circle cx="346.965" cy="88.191" r="4.642" transform="rotate(-180 346.965 88.19)" fill="#0092F6"/><circle cx="269.217" cy="99.795" r="4.642" transform="rotate(-180 269.217 99.795)" fill="#0092F6"/><circle cx="216.998" cy="141.57" r="4.642" transform="rotate(-180 216.998 141.57)" fill="#0092F6"/><circle cx="182.186" cy="198.431" r="4.642" transform="rotate(-180 182.186 198.431)" fill="#0092F6"/><circle cx="172.902" cy="244.848" r="4.642" transform="rotate(-180 172.902 244.848)" fill="#0092F6"/><circle cx="168.261" cy="301.708" r="4.642" transform="rotate(-180 168.261 301.708)" fill="#0092F6"/><circle cx="182.186" cy="366.691" r="4.642" transform="rotate(-180 182.186 366.691)" fill="#0092F6"/><circle cx="207.715" cy="404.985" r="4.642" transform="rotate(-180 207.715 404.985)" fill="#0092F6"/><circle cx="212.357" cy="437.477" r="4.642" transform="rotate(-180 212.357 437.477)" fill="#0092F6"/><circle cx="152.015" cy="401.504" r="4.642" transform="rotate(-180 152.015 401.504)" fill="#0092F6"/><circle cx="116.042" cy="341.162" r="4.642" transform="rotate(-180 116.042 341.162)" fill="#0092F6"/><circle cx="102.117" cy="268.056" r="4.642" transform="rotate(-180 102.117 268.056)" fill="#0092F6"/><circle cx="111.4" cy="211.195" r="4.642" transform="rotate(-180 111.4 211.195)" fill="#0092F6"/><circle cx="134.609" cy="155.495" r="4.642" transform="rotate(-180 134.609 155.495)" fill="#0092F6"/><circle cx="168.261" cy="104.437" r="4.642" transform="rotate(-180 168.261 104.437)" fill="#0092F6"/><circle cx="198.432" cy="78.907" r="4.642" transform="rotate(-180 198.432 78.907)" fill="#0092F6"/><circle cx="249.49" cy="48.737" r="4.642" transform="rotate(-180 249.49 48.737)" fill="#0092F6"/><circle cx="327.238" cy="27.849" r="4.642" transform="rotate(-180 327.238 27.85)" fill="#0092F6"/><circle cx="399.184" cy="42.935" r="4.642" transform="rotate(-180 399.184 42.935)" fill="#0092F6"/><circle cx="454.884" cy="74.266" r="4.642" transform="rotate(-180 454.884 74.266)" fill="#0092F6"/><circle cx="471.13" cy="476.931" r="4.642" transform="rotate(-180 471.13 476.931)" fill="#0092F6"/><circle cx="523.349" cy="401.504" r="4.642" transform="rotate(-180 523.349 401.504)" fill="#0092F6"/><circle cx="512.905" cy="387.579" r="2.321" transform="rotate(-180 512.905 387.579)" fill="#0092F6"/><circle cx="483.895" cy="279.66" r="2.321" transform="rotate(-180 483.895 279.66)" fill="#0092F6"/><circle cx="545.397" cy="208.874" r="2.321" transform="rotate(-180 545.397 208.874)" fill="#0092F6"/><circle cx="447.921" cy="153.174" r="2.321" transform="rotate(-180 447.921 153.174)" fill="#0092F6"/><circle cx="285.463" cy="554.679" r="2.321" transform="rotate(-180 285.463 554.679)" fill="#0092F6"/></g></mask><g mask="url('#mask0_3_843')"><path fill="#2EA3F3" d="M-717.88 0H636.97v365.996H-717.88z"/></g></svg>